
<svg xmlns="http://www.w3.org/2000/svg" xmlns:xlink="http://www.w3.org/1999/xlink" width="203" height="202" viewBox="0 0 203 202">
  <defs>
    <path id="settings_24px-a" d="M170.067255,108.427503 C170.462255,105.267503 170.758505,102.107503 170.758505,98.7500027 C170.758505,95.3925026 170.462255,92.2325025 170.067255,89.0725024 L190.903505,72.778752 C192.779755,71.2975019 193.273505,68.6312519 192.088505,66.4587518 L172.338505,32.2912509 C171.153505,30.1187508 168.487255,29.3287508 166.314755,30.1187508 L141.726004,39.9937511 C136.591004,36.043751 131.061004,32.7850009 125.037253,30.3162508 L121.284753,4.14750011 C120.988503,1.77750005 118.914753,0 116.446003,0 L76.9460021,0 C74.477252,0 72.403502,1.77750005 72.107252,4.14750011 L68.3547519,30.3162508 C62.3310017,32.7850009 56.8010015,36.142501 51.6660014,39.9937511 L27.0772507,30.1187508 C24.8060007,29.2300008 22.2385006,30.1187508 21.0535006,32.2912509 L1.30350004,66.4587518 C0.0197500005,68.6312519 0.612250017,71.2975019 2.48850007,72.778752 L23.3247506,89.0725024 C22.9297506,92.2325025 22.6335006,95.4912526 22.6335006,98.7500027 C22.6335006,102.008753 22.9297506,105.267503 23.3247506,108.427503 L2.48850007,124.721253 C0.612250017,126.202503 0.118500003,128.868754 1.30350004,131.041254 L21.0535006,165.208754 C22.2385006,167.381255 24.9047507,168.171255 27.0772507,167.381255 L51.6660014,157.506254 C56.8010015,161.456254 62.3310017,164.715004 68.3547519,167.183755 L72.107252,193.352505 C72.403502,195.722505 74.477252,197.5 76.9460021,197.5 L116.446003,197.5 C118.914753,197.5 120.988503,195.722505 121.284753,193.352505 L125.037253,167.183755 C131.061004,164.715004 136.591004,161.357504 141.726004,157.506254 L166.314755,167.381255 C168.586005,168.270005 171.153505,167.381255 172.338505,165.208754 L192.088505,131.041254 C193.273505,128.868754 192.779755,126.202503 190.903505,124.721253 L170.067255,108.427503 Z M96.6960026,133.312504 C77.6372521,133.312504 62.1335017,117.808753 62.1335017,98.7500027 C62.1335017,79.6912522 77.6372521,64.1875017 96.6960026,64.1875017 C115.754753,64.1875017 131.258504,79.6912522 131.258504,98.7500027 C131.258504,117.808753 115.754753,133.312504 96.6960026,133.312504 Z"/>
  </defs>
  <use fill-opacity=".6" opacity=".353" transform="rotate(-15 106.596 81.01)" xlink:href="#settings_24px-a"/>
</svg>
