<?xml version="1.0" encoding="utf-8"?><svg xmlns="http://www.w3.org/2000/svg" xmlns:xlink="http://www.w3.org/1999/xlink"><defs><svg viewBox="0 0 24 24" id="bug" xmlns="http://www.w3.org/2000/svg"><path fill="#ff5630" d="M3 0h18a3 3 0 013 3v18a3 3 0 01-3 3H3a3 3 0 01-3-3V3a3 3 0 013-3z"/><path fill="#fff" d="M7.654 17.488a7 7 0 009.834-9.834l-9.834 9.834zm-1.375-1.453l9.756-9.756a7 7 0 00-9.756 9.756zM12 21c-4.971 0-9-4.029-9-9s4.029-9 9-9 9 4.029 9 9-4.029 9-9 9z"/></svg><svg viewBox="0 0 24 24" id="changes" xmlns="http://www.w3.org/2000/svg"><path fill="#ffab00" d="M3 0h18a3 3 0 013 3v18a3 3 0 01-3 3H3a3 3 0 01-3-3V3a3 3 0 013-3z"/><path fill="#fff" d="M16.587 15l-1.294-1.293a.999.999 0 111.414-1.414l3.005 3.003a1 1 0 010 1.415l-3.005 3.001a1 1 0 01-1.414-1.416L16.591 17H5a1 1 0 010-2h11.587zM7.418 7H19a1 1 0 010 2H7.414l1.298 1.296a1.001 1.001 0 01-1.414 1.416L4.293 8.711a1.002 1.002 0 010-1.415l3.005-3.003a.999.999 0 111.414 1.414L7.418 7z"/></svg><svg viewBox="0 0 24 24" id="codes" xmlns="http://www.w3.org/2000/svg"><path fill="#6554c0" d="M3 0h18a3 3 0 013 3v18a3 3 0 01-3 3H3a3 3 0 01-3-3V3a3 3 0 013-3z"/><path fill="#fff" d="M8.583 7.002a.997.997 0 011.415 0c.389.39.389 1.024-.001 1.414l-3.582 3.581 3.582 3.576c.39.391.39 1.024.001 1.414a.999.999 0 01-1.414.002l-4.291-4.285a1 1 0 010-1.415l4.29-4.287zm5.411-.013a.994.994 0 011.414-.001l4.299 4.293a1 1 0 010 1.415l-4.298 4.296a1 1 0 11-1.414-1.415l3.591-3.588-3.591-3.587a.999.999 0 01-.001-1.413z"/></svg><svg viewBox="0 0 24 24" id="epic" xmlns="http://www.w3.org/2000/svg"><path fill="#6554c0" d="M3 0h18a3 3 0 013 3v18a3 3 0 01-3 3H3a3 3 0 01-3-3V3a3 3 0 013-3z"/><path fill="#fff" d="M18.188 9.4c.997 0 1.812.803 1.812 1.8-.115.512-.115.512-.165.558-.043.068-.043.068-.086.13-.054.077-.127.178-.222.306-.173.231-.419.553-.735.96-.552.712-1.305 1.671-2.21 2.815l-.048.061c-.712.9-1.474 1.86-2.236 2.818l-.737.925-.28.351-.074.083c-.556.556-1.088.793-1.52.793a1.807 1.807 0 01-1.812-1.8v-4.626H6.938l-.168-.014C5.819 14.398 5 13.81 5 12.8c0-.526.188-.77 3.375-4.769l.093-.117c.712-.893 1.475-1.843 2.238-2.788l.737-.912c.229-.282.229-.282.325-.397l.196-.21a1.807 1.807 0 013.16 1.192v4.6h3.063zm-5.063 2V5.317l-.127.157-.735.909c-.796.986-1.549 1.923-2.231 2.778l-.047.058c-.018.021-.017.022-.046.058-1.573 1.974-2.217 2.788-2.596 3.297h4.532v6.106l.122-.153.736-.924c.796-1 1.55-1.95 2.232-2.813l.048-.061a393.45 393.45 0 002.605-3.328h-4.495z"/></svg><svg viewBox="0 0 24 24" id="improvement" xmlns="http://www.w3.org/2000/svg"><path fill="#36b37e" d="M3 0h18a3 3 0 013 3v18a3 3 0 01-3 3H3a3 3 0 01-3-3V3a3 3 0 013-3z"/><path fill="#fff" d="M13 7.422V19a1 1 0 01-2 0V7.408l-3.298 3.299a.999.999 0 11-1.414-1.414l4.998-5a1 1 0 011.415 0l4.998 5a1 1 0 01-1.414 1.414l-3.284-3.285z"/></svg><svg viewBox="0 0 24 24" id="issue" xmlns="http://www.w3.org/2000/svg"><path fill="#2684ff" d="M3 0h18a3 3 0 013 3v18a3 3 0 01-3 3H3a3 3 0 01-3-3V3a3 3 0 013-3z"/><path fill="#fff" d="M3 8.009C3 6.9 3.893 6 4.995 6h14.01C20.107 6 21 6.902 21 8.009v7.983a2.002 2.002 0 01-1.995 2.009H4.995A2.004 2.004 0 013 15.992V8.009zm11.293 1.284l-2.792 2.792-1.263-1.268a1 1 0 00-1.417 1.411l1.97 1.978a1 1 0 001.416.001l3.5-3.5a.999.999 0 10-1.414-1.414zM5 15.991c0 .006 14.005.009 14.005.009C19 16 19 8.009 19 8.009 19 8.003 4.995 8 4.995 8 5 8 5 15.991 5 15.991z"/></svg><svg viewBox="0 0 24 24" id="mev" xmlns="http://www.w3.org/2000/svg"><path fill="#36b37e" d="M3 0h18a3 3 0 013 3v18a3 3 0 01-3 3H3a3 3 0 01-3-3V3a3 3 0 013-3z"/><path fill="#fff" d="M15.647 19.515l1.29-1.528L12 13.82l-4.939 4.167c-.022.019-.061.005-.061.167V6.689c0-.34.412-.688 1-.688h8c.587 0 1 .349 1 .688v11.465c0-.162-.041-.148-.063-.167l-1.29 1.528C16.885 20.56 19 19.821 19 18.153V6.688C19 5.161 17.623 4 16 4H8C6.376 4 5 5.161 5 6.688v11.465c0 1.667 2.113 2.407 3.351 1.362L12 16.437l3.647 3.078z"/></svg><svg viewBox="0 0 24 24" id="new" xmlns="http://www.w3.org/2000/svg"><path fill="#36b37e" d="M3 0h18a3 3 0 013 3v18a3 3 0 01-3 3H3a3 3 0 01-3-3V3a3 3 0 013-3z"/><path fill="#fff" d="M13 11h6a1 1 0 010 2h-6v6a1 1 0 01-2 0v-6H5a1 1 0 010-2h6V5a1 1 0 012 0v6z"/></svg><svg viewBox="0 0 24 24" id="problem" xmlns="http://www.w3.org/2000/svg"><path fill="#FD9900" d="M3 0h18a3 3 0 013 3v18a3 3 0 01-3 3H3a3 3 0 01-3-3V3a3 3 0 013-3z"/><path fill="#fff" d="M17 12a5 5 0 11-10.001-.001A5 5 0 0117 12z"/></svg><svg viewBox="0 0 24 24" id="subtask" xmlns="http://www.w3.org/2000/svg"><path fill="#2684ff" d="M3 0h18a3 3 0 013 3v18a3 3 0 01-3 3H3a3 3 0 01-3-3V3a3 3 0 013-3z"/><path fill="#fff" d="M13 11h5a1 1 0 011 1v6a1 1 0 01-1 1h-6a1 1 0 01-1-1v-5H6a1 1 0 01-1-1V6a1 1 0 011-1h6a1 1 0 011 1v5zM7 7v4h4V7H7zm6 6v4h4v-4h-4z"/></svg><svg viewBox="0 0 24 24" id="task" xmlns="http://www.w3.org/2000/svg"><path fill="#2684ff" d="M3 0h18a3 3 0 013 3v18a3 3 0 01-3 3H3a3 3 0 01-3-3V3a3 3 0 013-3z"/><path fill="#fff" d="M6 4h12a2 2 0 012 2v12a2 2 0 01-2 2H6a2 2 0 01-2-2V6a2 2 0 012-2zm0 2v12h12V6H6z"/></svg><svg viewBox="0 0 24 24" id="ticket" xmlns="http://www.w3.org/2000/svg"><path fill="#ff5630" d="M3 0h18a3 3 0 013 3v18a3 3 0 01-3 3H3a3 3 0 01-3-3V3a3 3 0 013-3z"/><path fill="#fff" d="M8.829 12h6.343l.906 3H7.923l.906-3zm.604-2l1.61-5.332a1 1 0 011.914 0L14.567 10H9.432zm7.248 7H18a1 1 0 011 1v2H5v-2a1 1 0 011-1h10.681z"/></svg></defs></svg>